<?xml version="1.0" encoding="UTF-8" standalone="no"?>
<!DOCTYPE svg PUBLIC "-//W3C//DTD SVG 1.1//EN"
 "http://www.w3.org/Graphics/SVG/1.1/DTD/svg11.dtd">
<!-- Generated by graphviz version 2.47.3 (20210619.1520)
 -->
<!-- Title: dependencies Pages: 1 -->
<svg width="489pt" height="174pt"
 viewBox="0.00 0.00 489.00 173.80" xmlns="http://www.w3.org/2000/svg" xmlns:xlink="http://www.w3.org/1999/xlink">
<g id="graph0" class="graph" transform="scale(1 1) rotate(0) translate(4 169.8)">
<title>dependencies</title>
<polygon fill="white" stroke="transparent" points="-4,4 -4,-169.8 485,-169.8 485,4 -4,4"/>
<text text-anchor="middle" x="240.5" y="-8.2" font-family="sans-serif" font-size="14.00">dependencies</text>
<g id="clust1" class="cluster">
<title>cluster_FavoriteModule</title>
<polygon fill="none" stroke="black" stroke-dasharray="1,5" points="8,-32.8 8,-157.8 473,-157.8 473,-32.8 8,-32.8"/>
</g>
<g id="clust2" class="cluster">
<title>cluster_FavoriteModule_declarations</title>
<polygon fill="none" stroke="black" points="321,-40.8 321,-92.8 465,-92.8 465,-40.8 321,-40.8"/>
</g>
<g id="clust4" class="cluster">
<title>cluster_FavoriteModule_imports</title>
<polygon fill="none" stroke="black" points="16,-40.8 16,-92.8 313,-92.8 313,-40.8 16,-40.8"/>
</g>
<!-- FavoriteComponent -->
<g id="node1" class="node">
<title>FavoriteComponent</title>
<polygon fill="#ffffb3" stroke="black" points="456.99,-84.8 329.01,-84.8 329.01,-48.8 456.99,-48.8 456.99,-84.8"/>
<text text-anchor="middle" x="393" y="-62.6" font-family="Times,serif" font-size="14.00">FavoriteComponent</text>
</g>
<!-- FavoriteModule -->
<g id="node2" class="node">
<title>FavoriteModule</title>
<polygon fill="#8dd3c7" stroke="black" points="302.2,-149.8 299.2,-153.8 278.2,-153.8 275.2,-149.8 195.8,-149.8 195.8,-113.8 302.2,-113.8 302.2,-149.8"/>
<text text-anchor="middle" x="249" y="-127.6" font-family="Times,serif" font-size="14.00">FavoriteModule</text>
</g>
<!-- FavoriteComponent&#45;&gt;FavoriteModule -->
<g id="edge1" class="edge">
<title>FavoriteComponent&#45;&gt;FavoriteModule</title>
<path fill="none" stroke="black" d="M393,-84.91C393,-104.14 393,-131.8 393,-131.8 393,-131.8 312.21,-131.8 312.21,-131.8"/>
<polygon fill="black" stroke="black" points="312.21,-128.3 302.21,-131.8 312.21,-135.3 312.21,-128.3"/>
</g>
<!-- CommonModule -->
<g id="node3" class="node">
<title>CommonModule</title>
<polygon fill="#8dd3c7" stroke="black" points="304.67,-84.8 301.67,-88.8 280.67,-88.8 277.67,-84.8 193.33,-84.8 193.33,-48.8 304.67,-48.8 304.67,-84.8"/>
<text text-anchor="middle" x="249" y="-62.6" font-family="Times,serif" font-size="14.00">CommonModule</text>
</g>
<!-- CommonModule&#45;&gt;FavoriteModule -->
<g id="edge2" class="edge">
<title>CommonModule&#45;&gt;FavoriteModule</title>
<path fill="none" stroke="black" d="M249,-84.91C249,-84.91 249,-103.79 249,-103.79"/>
<polygon fill="black" stroke="black" points="245.5,-103.79 249,-113.79 252.5,-103.79 245.5,-103.79"/>
</g>
<!-- FavoriteRoutingModule -->
<g id="node4" class="node">
<title>FavoriteRoutingModule</title>
<polygon fill="#8dd3c7" stroke="black" points="175.82,-84.8 172.82,-88.8 151.82,-88.8 148.82,-84.8 24.18,-84.8 24.18,-48.8 175.82,-48.8 175.82,-84.8"/>
<text text-anchor="middle" x="100" y="-62.6" font-family="Times,serif" font-size="14.00">FavoriteRoutingModule</text>
</g>
<!-- FavoriteRoutingModule&#45;&gt;FavoriteModule -->
<g id="edge3" class="edge">
<title>FavoriteRoutingModule&#45;&gt;FavoriteModule</title>
<path fill="none" stroke="black" d="M100,-84.91C100,-104.14 100,-131.8 100,-131.8 100,-131.8 185.63,-131.8 185.63,-131.8"/>
<polygon fill="black" stroke="black" points="185.63,-135.3 195.63,-131.8 185.63,-128.3 185.63,-135.3"/>
</g>
</g>
</svg>
