<?xml version="1.0" encoding="UTF-8" standalone="no"?>
<!DOCTYPE svg PUBLIC "-//W3C//DTD SVG 1.1//EN"
 "http://www.w3.org/Graphics/SVG/1.1/DTD/svg11.dtd">
<!-- Generated by graphviz version 2.47.3 (20210619.1520)
 -->
<!-- Title: dependencies Pages: 1 -->
<svg width="472pt" height="174pt"
 viewBox="0.00 0.00 472.00 173.80" xmlns="http://www.w3.org/2000/svg" xmlns:xlink="http://www.w3.org/1999/xlink">
<g id="graph0" class="graph" transform="scale(1 1) rotate(0) translate(4 169.8)">
<title>dependencies</title>
<polygon fill="white" stroke="transparent" points="-4,4 -4,-169.8 468,-169.8 468,4 -4,4"/>
<text text-anchor="middle" x="232" y="-8.2" font-family="sans-serif" font-size="14.00">dependencies</text>
<g id="clust1" class="cluster">
<title>cluster_SearchModule</title>
<polygon fill="none" stroke="black" stroke-dasharray="1,5" points="8,-32.8 8,-157.8 456,-157.8 456,-32.8 8,-32.8"/>
</g>
<g id="clust2" class="cluster">
<title>cluster_SearchModule_declarations</title>
<polygon fill="none" stroke="black" points="312,-40.8 312,-92.8 448,-92.8 448,-40.8 312,-40.8"/>
</g>
<g id="clust4" class="cluster">
<title>cluster_SearchModule_imports</title>
<polygon fill="none" stroke="black" points="16,-40.8 16,-92.8 304,-92.8 304,-40.8 16,-40.8"/>
</g>
<!-- SearchComponent -->
<g id="node1" class="node">
<title>SearchComponent</title>
<polygon fill="#ffffb3" stroke="black" points="439.92,-84.8 320.08,-84.8 320.08,-48.8 439.92,-48.8 439.92,-84.8"/>
<text text-anchor="middle" x="380" y="-62.6" font-family="Times,serif" font-size="14.00">SearchComponent</text>
</g>
<!-- SearchModule -->
<g id="node2" class="node">
<title>SearchModule</title>
<polygon fill="#8dd3c7" stroke="black" points="288.64,-149.8 285.64,-153.8 264.64,-153.8 261.64,-149.8 191.36,-149.8 191.36,-113.8 288.64,-113.8 288.64,-149.8"/>
<text text-anchor="middle" x="240" y="-127.6" font-family="Times,serif" font-size="14.00">SearchModule</text>
</g>
<!-- SearchComponent&#45;&gt;SearchModule -->
<g id="edge1" class="edge">
<title>SearchComponent&#45;&gt;SearchModule</title>
<path fill="none" stroke="black" d="M380,-84.91C380,-104.14 380,-131.8 380,-131.8 380,-131.8 298.97,-131.8 298.97,-131.8"/>
<polygon fill="black" stroke="black" points="298.97,-128.3 288.97,-131.8 298.97,-135.3 298.97,-128.3"/>
</g>
<!-- CommonModule -->
<g id="node3" class="node">
<title>CommonModule</title>
<polygon fill="#8dd3c7" stroke="black" points="295.67,-84.8 292.67,-88.8 271.67,-88.8 268.67,-84.8 184.33,-84.8 184.33,-48.8 295.67,-48.8 295.67,-84.8"/>
<text text-anchor="middle" x="240" y="-62.6" font-family="Times,serif" font-size="14.00">CommonModule</text>
</g>
<!-- CommonModule&#45;&gt;SearchModule -->
<g id="edge2" class="edge">
<title>CommonModule&#45;&gt;SearchModule</title>
<path fill="none" stroke="black" d="M240,-84.91C240,-84.91 240,-103.79 240,-103.79"/>
<polygon fill="black" stroke="black" points="236.5,-103.79 240,-113.79 243.5,-103.79 236.5,-103.79"/>
</g>
<!-- SearchRoutingModule -->
<g id="node4" class="node">
<title>SearchRoutingModule</title>
<polygon fill="#8dd3c7" stroke="black" points="166.25,-84.8 163.25,-88.8 142.25,-88.8 139.25,-84.8 23.75,-84.8 23.75,-48.8 166.25,-48.8 166.25,-84.8"/>
<text text-anchor="middle" x="95" y="-62.6" font-family="Times,serif" font-size="14.00">SearchRoutingModule</text>
</g>
<!-- SearchRoutingModule&#45;&gt;SearchModule -->
<g id="edge3" class="edge">
<title>SearchRoutingModule&#45;&gt;SearchModule</title>
<path fill="none" stroke="black" d="M95,-84.91C95,-104.14 95,-131.8 95,-131.8 95,-131.8 181.31,-131.8 181.31,-131.8"/>
<polygon fill="black" stroke="black" points="181.31,-135.3 191.31,-131.8 181.31,-128.3 181.31,-135.3"/>
</g>
</g>
</svg>
