<?xml version="1.0" encoding="UTF-8" standalone="no"?>
<!DOCTYPE svg PUBLIC "-//W3C//DTD SVG 1.1//EN"
 "http://www.w3.org/Graphics/SVG/1.1/DTD/svg11.dtd">
<!-- Generated by graphviz version 2.47.3 (20210619.1520)
 -->
<!-- Title: dependencies Pages: 1 -->
<svg width="1283pt" height="247pt"
 viewBox="0.00 0.00 1283.00 246.80" xmlns="http://www.w3.org/2000/svg" xmlns:xlink="http://www.w3.org/1999/xlink">
<g id="graph0" class="graph" transform="scale(1 1) rotate(0) translate(4 242.8)">
<title>dependencies</title>
<polygon fill="white" stroke="transparent" points="-4,4 -4,-242.8 1279,-242.8 1279,4 -4,4"/>
<text text-anchor="middle" x="637.5" y="-8.2" font-family="sans-serif" font-size="14.00">dependencies</text>
<g id="clust1" class="cluster">
<title>cluster_AppModule</title>
<polygon fill="none" stroke="black" stroke-dasharray="1,5" points="8,-32.8 8,-230.8 1267,-230.8 1267,-32.8 8,-32.8"/>
</g>
<g id="clust8" class="cluster">
<title>cluster_AppModule_bootstrap</title>
<polygon fill="none" stroke="black" points="574,-170.8 574,-222.8 698,-222.8 698,-170.8 574,-170.8"/>
</g>
<g id="clust9" class="cluster">
<title>cluster_AppModule_providers</title>
<polygon fill="none" stroke="black" points="1113,-40.8 1113,-92.8 1259,-92.8 1259,-40.8 1113,-40.8"/>
</g>
<g id="clust2" class="cluster">
<title>cluster_AppModule_declarations</title>
<polygon fill="none" stroke="black" points="705,-40.8 705,-92.8 1105,-92.8 1105,-40.8 705,-40.8"/>
</g>
<g id="clust6" class="cluster">
<title>cluster_AppModule_imports</title>
<polygon fill="none" stroke="black" points="16,-40.8 16,-92.8 697,-92.8 697,-40.8 16,-40.8"/>
</g>
<!-- AppComponent -->
<g id="node1" class="node">
<title>AppComponent</title>
<polygon fill="#ffffb3" stroke="black" points="1096.94,-84.8 991.06,-84.8 991.06,-48.8 1096.94,-48.8 1096.94,-84.8"/>
<text text-anchor="middle" x="1044" y="-62.6" font-family="Times,serif" font-size="14.00">AppComponent</text>
</g>
<!-- AppModule -->
<g id="node4" class="node">
<title>AppModule</title>
<polygon fill="#8dd3c7" stroke="black" points="677.66,-149.8 674.66,-153.8 653.66,-153.8 650.66,-149.8 594.34,-149.8 594.34,-113.8 677.66,-113.8 677.66,-149.8"/>
<text text-anchor="middle" x="636" y="-127.6" font-family="Times,serif" font-size="14.00">AppModule</text>
</g>
<!-- AppComponent&#45;&gt;AppModule -->
<g id="edge1" class="edge">
<title>AppComponent&#45;&gt;AppModule</title>
<path fill="none" stroke="black" d="M1044,-84.93C1044,-105.37 1044,-135.8 1044,-135.8 1044,-135.8 687.75,-135.8 687.75,-135.8"/>
<polygon fill="black" stroke="black" points="687.75,-132.3 677.75,-135.8 687.75,-139.3 687.75,-132.3"/>
</g>
<!-- HomeComponent -->
<g id="node2" class="node">
<title>HomeComponent</title>
<polygon fill="#ffffb3" stroke="black" points="973.55,-84.8 858.45,-84.8 858.45,-48.8 973.55,-48.8 973.55,-84.8"/>
<text text-anchor="middle" x="916" y="-62.6" font-family="Times,serif" font-size="14.00">HomeComponent</text>
</g>
<!-- HomeComponent&#45;&gt;AppModule -->
<g id="edge2" class="edge">
<title>HomeComponent&#45;&gt;AppModule</title>
<path fill="none" stroke="black" d="M916,-85.07C916,-103.36 916,-128.8 916,-128.8 916,-128.8 687.92,-128.8 687.92,-128.8"/>
<polygon fill="black" stroke="black" points="687.92,-125.3 677.92,-128.8 687.92,-132.3 687.92,-125.3"/>
</g>
<!-- routingComponents -->
<g id="node3" class="node">
<title>routingComponents</title>
<polygon fill="#ffffb3" stroke="black" points="840.72,-84.8 713.28,-84.8 713.28,-48.8 840.72,-48.8 840.72,-84.8"/>
<text text-anchor="middle" x="777" y="-62.6" font-family="Times,serif" font-size="14.00">routingComponents</text>
</g>
<!-- routingComponents&#45;&gt;AppModule -->
<g id="edge3" class="edge">
<title>routingComponents&#45;&gt;AppModule</title>
<path fill="none" stroke="black" d="M777,-84.81C777,-100.85 777,-121.8 777,-121.8 777,-121.8 687.92,-121.8 687.92,-121.8"/>
<polygon fill="black" stroke="black" points="687.92,-118.3 677.92,-121.8 687.92,-125.3 687.92,-118.3"/>
</g>
<!-- AppComponent  -->
<g id="node10" class="node">
<title>AppComponent </title>
<polygon fill="#80b1d3" stroke="black" points="690.44,-214.8 581.56,-214.8 581.56,-178.8 690.44,-178.8 690.44,-214.8"/>
<text text-anchor="middle" x="636" y="-192.6" font-family="Times,serif" font-size="14.00">AppComponent </text>
</g>
<!-- AppModule&#45;&gt;AppComponent  -->
<g id="edge9" class="edge">
<title>AppModule&#45;&gt;AppComponent </title>
<path fill="none" stroke="black" stroke-dasharray="1,5" d="M636,-149.91C636,-149.91 636,-168.79 636,-168.79"/>
<polygon fill="black" stroke="black" points="632.5,-168.79 636,-178.79 639.5,-168.79 632.5,-168.79"/>
</g>
<!-- BrowserModule -->
<g id="node5" class="node">
<title>BrowserModule</title>
<polygon fill="#8dd3c7" stroke="black" points="689.47,-84.8 686.47,-88.8 665.47,-88.8 662.47,-84.8 582.53,-84.8 582.53,-48.8 689.47,-48.8 689.47,-84.8"/>
<text text-anchor="middle" x="636" y="-62.6" font-family="Times,serif" font-size="14.00">BrowserModule</text>
</g>
<!-- BrowserModule&#45;&gt;AppModule -->
<g id="edge4" class="edge">
<title>BrowserModule&#45;&gt;AppModule</title>
<path fill="none" stroke="black" d="M636,-84.91C636,-84.91 636,-103.79 636,-103.79"/>
<polygon fill="black" stroke="black" points="632.5,-103.79 636,-113.79 639.5,-103.79 632.5,-103.79"/>
</g>
<!-- AppRoutingModule -->
<g id="node6" class="node">
<title>AppRoutingModule</title>
<polygon fill="#8dd3c7" stroke="black" points="564.27,-84.8 561.27,-88.8 540.27,-88.8 537.27,-84.8 435.73,-84.8 435.73,-48.8 564.27,-48.8 564.27,-84.8"/>
<text text-anchor="middle" x="500" y="-62.6" font-family="Times,serif" font-size="14.00">AppRoutingModule</text>
</g>
<!-- AppRoutingModule&#45;&gt;AppModule -->
<g id="edge5" class="edge">
<title>AppRoutingModule&#45;&gt;AppModule</title>
<path fill="none" stroke="black" d="M500,-84.81C500,-100.85 500,-121.8 500,-121.8 500,-121.8 584.09,-121.8 584.09,-121.8"/>
<polygon fill="black" stroke="black" points="584.09,-125.3 594.09,-121.8 584.09,-118.3 584.09,-125.3"/>
</g>
<!-- FormsModule -->
<g id="node7" class="node">
<title>FormsModule</title>
<polygon fill="#8dd3c7" stroke="black" points="417.83,-84.8 414.83,-88.8 393.83,-88.8 390.83,-84.8 322.17,-84.8 322.17,-48.8 417.83,-48.8 417.83,-84.8"/>
<text text-anchor="middle" x="370" y="-62.6" font-family="Times,serif" font-size="14.00">FormsModule</text>
</g>
<!-- FormsModule&#45;&gt;AppModule -->
<g id="edge6" class="edge">
<title>FormsModule&#45;&gt;AppModule</title>
<path fill="none" stroke="black" d="M370,-85.07C370,-103.36 370,-128.8 370,-128.8 370,-128.8 584.14,-128.8 584.14,-128.8"/>
<polygon fill="black" stroke="black" points="584.14,-132.3 594.14,-128.8 584.14,-125.3 584.14,-132.3"/>
</g>
<!-- ReactiveFormsModule -->
<g id="node8" class="node">
<title>ReactiveFormsModule</title>
<polygon fill="#8dd3c7" stroke="black" points="304.3,-84.8 301.3,-88.8 280.3,-88.8 277.3,-84.8 159.7,-84.8 159.7,-48.8 304.3,-48.8 304.3,-84.8"/>
<text text-anchor="middle" x="232" y="-62.6" font-family="Times,serif" font-size="14.00">ReactiveFormsModule</text>
</g>
<!-- ReactiveFormsModule&#45;&gt;AppModule -->
<g id="edge7" class="edge">
<title>ReactiveFormsModule&#45;&gt;AppModule</title>
<path fill="none" stroke="black" d="M232,-84.93C232,-105.37 232,-135.8 232,-135.8 232,-135.8 584.29,-135.8 584.29,-135.8"/>
<polygon fill="black" stroke="black" points="584.29,-139.3 594.29,-135.8 584.29,-132.3 584.29,-139.3"/>
</g>
<!-- HttpClientModule -->
<g id="node9" class="node">
<title>HttpClientModule</title>
<polygon fill="#8dd3c7" stroke="black" points="142.16,-84.8 139.16,-88.8 118.16,-88.8 115.16,-84.8 23.84,-84.8 23.84,-48.8 142.16,-48.8 142.16,-84.8"/>
<text text-anchor="middle" x="83" y="-62.6" font-family="Times,serif" font-size="14.00">HttpClientModule</text>
</g>
<!-- HttpClientModule&#45;&gt;AppModule -->
<g id="edge8" class="edge">
<title>HttpClientModule&#45;&gt;AppModule</title>
<path fill="none" stroke="black" d="M83,-84.81C83,-107.29 83,-142.8 83,-142.8 83,-142.8 583.98,-142.8 583.98,-142.8"/>
<polygon fill="black" stroke="black" points="583.98,-146.3 593.98,-142.8 583.98,-139.3 583.98,-146.3"/>
</g>
<!-- MovieService -->
<g id="node11" class="node">
<title>MovieService</title>
<ellipse fill="#fdb462" stroke="black" cx="1186" cy="-66.8" rx="65.41" ry="18"/>
<text text-anchor="middle" x="1186" y="-62.6" font-family="Times,serif" font-size="14.00">MovieService</text>
</g>
<!-- MovieService&#45;&gt;AppModule -->
<g id="edge10" class="edge">
<title>MovieService&#45;&gt;AppModule</title>
<path fill="none" stroke="black" d="M1186,-84.81C1186,-107.29 1186,-142.8 1186,-142.8 1186,-142.8 687.79,-142.8 687.79,-142.8"/>
<polygon fill="black" stroke="black" points="687.79,-139.3 677.79,-142.8 687.79,-146.3 687.79,-139.3"/>
</g>
</g>
</svg>
