<?xml version="1.0" encoding="UTF-8" standalone="no"?>
<!DOCTYPE svg PUBLIC "-//W3C//DTD SVG 1.1//EN"
 "http://www.w3.org/Graphics/SVG/1.1/DTD/svg11.dtd">
<!-- Generated by graphviz version 2.47.3 (20210619.1520)
 -->
<!-- Title: dependencies Pages: 1 -->
<svg width="469pt" height="174pt"
 viewBox="0.00 0.00 469.00 173.80" xmlns="http://www.w3.org/2000/svg" xmlns:xlink="http://www.w3.org/1999/xlink">
<g id="graph0" class="graph" transform="scale(1 1) rotate(0) translate(4 169.8)">
<title>dependencies</title>
<polygon fill="white" stroke="transparent" points="-4,4 -4,-169.8 465,-169.8 465,4 -4,4"/>
<text text-anchor="middle" x="230.5" y="-8.2" font-family="sans-serif" font-size="14.00">dependencies</text>
<g id="clust1" class="cluster">
<title>cluster_MovieModule</title>
<polygon fill="none" stroke="black" stroke-dasharray="1,5" points="8,-32.8 8,-157.8 453,-157.8 453,-32.8 8,-32.8"/>
</g>
<g id="clust2" class="cluster">
<title>cluster_MovieModule_declarations</title>
<polygon fill="none" stroke="black" points="311,-40.8 311,-92.8 445,-92.8 445,-40.8 311,-40.8"/>
</g>
<g id="clust4" class="cluster">
<title>cluster_MovieModule_imports</title>
<polygon fill="none" stroke="black" points="16,-40.8 16,-92.8 303,-92.8 303,-40.8 16,-40.8"/>
</g>
<!-- MovieComponent -->
<g id="node1" class="node">
<title>MovieComponent</title>
<polygon fill="#ffffb3" stroke="black" points="436.88,-84.8 319.12,-84.8 319.12,-48.8 436.88,-48.8 436.88,-84.8"/>
<text text-anchor="middle" x="378" y="-62.6" font-family="Times,serif" font-size="14.00">MovieComponent</text>
</g>
<!-- MovieModule -->
<g id="node2" class="node">
<title>MovieModule</title>
<polygon fill="#8dd3c7" stroke="black" points="287.1,-149.8 284.1,-153.8 263.1,-153.8 260.1,-149.8 190.9,-149.8 190.9,-113.8 287.1,-113.8 287.1,-149.8"/>
<text text-anchor="middle" x="239" y="-127.6" font-family="Times,serif" font-size="14.00">MovieModule</text>
</g>
<!-- MovieComponent&#45;&gt;MovieModule -->
<g id="edge1" class="edge">
<title>MovieComponent&#45;&gt;MovieModule</title>
<path fill="none" stroke="black" d="M378,-84.91C378,-104.14 378,-131.8 378,-131.8 378,-131.8 297.23,-131.8 297.23,-131.8"/>
<polygon fill="black" stroke="black" points="297.23,-128.3 287.23,-131.8 297.23,-135.3 297.23,-128.3"/>
</g>
<!-- CommonModule -->
<g id="node3" class="node">
<title>CommonModule</title>
<polygon fill="#8dd3c7" stroke="black" points="294.67,-84.8 291.67,-88.8 270.67,-88.8 267.67,-84.8 183.33,-84.8 183.33,-48.8 294.67,-48.8 294.67,-84.8"/>
<text text-anchor="middle" x="239" y="-62.6" font-family="Times,serif" font-size="14.00">CommonModule</text>
</g>
<!-- CommonModule&#45;&gt;MovieModule -->
<g id="edge2" class="edge">
<title>CommonModule&#45;&gt;MovieModule</title>
<path fill="none" stroke="black" d="M239,-84.91C239,-84.91 239,-103.79 239,-103.79"/>
<polygon fill="black" stroke="black" points="235.5,-103.79 239,-113.79 242.5,-103.79 235.5,-103.79"/>
</g>
<!-- MovieRoutingModule -->
<g id="node4" class="node">
<title>MovieRoutingModule</title>
<polygon fill="#8dd3c7" stroke="black" points="165.72,-84.8 162.72,-88.8 141.72,-88.8 138.72,-84.8 24.28,-84.8 24.28,-48.8 165.72,-48.8 165.72,-84.8"/>
<text text-anchor="middle" x="95" y="-62.6" font-family="Times,serif" font-size="14.00">MovieRoutingModule</text>
</g>
<!-- MovieRoutingModule&#45;&gt;MovieModule -->
<g id="edge3" class="edge">
<title>MovieRoutingModule&#45;&gt;MovieModule</title>
<path fill="none" stroke="black" d="M95,-84.91C95,-104.14 95,-131.8 95,-131.8 95,-131.8 180.65,-131.8 180.65,-131.8"/>
<polygon fill="black" stroke="black" points="180.65,-135.3 190.65,-131.8 180.65,-128.3 180.65,-135.3"/>
</g>
</g>
</svg>
