<?xml version="1.0" encoding="UTF-8" standalone="no"?>
<!DOCTYPE svg PUBLIC "-//W3C//DTD SVG 1.1//EN"
 "http://www.w3.org/Graphics/SVG/1.1/DTD/svg11.dtd">
<!-- Generated by graphviz version 2.47.3 (20210619.1520)
 -->
<!-- Title: dependencies Pages: 1 -->
<svg width="2755pt" height="253pt"
 viewBox="0.00 0.00 2755.00 252.80" xmlns="http://www.w3.org/2000/svg" xmlns:xlink="http://www.w3.org/1999/xlink">
<g id="graph0" class="graph" transform="scale(1 1) rotate(0) translate(4 248.8)">
<title>dependencies</title>
<polygon fill="white" stroke="transparent" points="-4,4 -4,-248.8 2751,-248.8 2751,4 -4,4"/>
<text text-anchor="middle" x="1373.5" y="-8.2" font-family="sans-serif" font-size="14.00">dependencies</text>
<g id="clust1" class="cluster">
<title>cluster_AppModule</title>
<polygon fill="none" stroke="black" stroke-dasharray="1,5" points="8,-32.8 8,-236.8 1268,-236.8 1268,-32.8 8,-32.8"/>
</g>
<g id="clust2" class="cluster">
<title>cluster_AppModule_declarations</title>
<polygon fill="none" stroke="black" points="860,-40.8 860,-92.8 1260,-92.8 1260,-40.8 860,-40.8"/>
</g>
<g id="clust6" class="cluster">
<title>cluster_AppModule_imports</title>
<polygon fill="none" stroke="black" points="170,-40.8 170,-92.8 852,-92.8 852,-40.8 170,-40.8"/>
</g>
<g id="clust8" class="cluster">
<title>cluster_AppModule_bootstrap</title>
<polygon fill="none" stroke="black" points="561,-176.8 561,-228.8 685,-228.8 685,-176.8 561,-176.8"/>
</g>
<g id="clust9" class="cluster">
<title>cluster_AppModule_providers</title>
<polygon fill="none" stroke="black" points="16,-40.8 16,-92.8 162,-92.8 162,-40.8 16,-40.8"/>
</g>
<g id="clust10" class="cluster">
<title>cluster_FavoriteModule</title>
<polygon fill="none" stroke="black" stroke-dasharray="1,5" points="1276,-32.8 1276,-160.8 1741,-160.8 1741,-32.8 1276,-32.8"/>
</g>
<g id="clust11" class="cluster">
<title>cluster_FavoriteModule_declarations</title>
<polygon fill="none" stroke="black" points="1284,-40.8 1284,-92.8 1428,-92.8 1428,-40.8 1284,-40.8"/>
</g>
<g id="clust13" class="cluster">
<title>cluster_FavoriteModule_imports</title>
<polygon fill="none" stroke="black" points="1436,-40.8 1436,-92.8 1733,-92.8 1733,-40.8 1436,-40.8"/>
</g>
<g id="clust17" class="cluster">
<title>cluster_MovieModule</title>
<polygon fill="none" stroke="black" stroke-dasharray="1,5" points="1749,-32.8 1749,-160.8 2065,-160.8 2065,-32.8 1749,-32.8"/>
</g>
<g id="clust18" class="cluster">
<title>cluster_MovieModule_declarations</title>
<polygon fill="none" stroke="black" points="1757,-40.8 1757,-92.8 1891,-92.8 1891,-40.8 1757,-40.8"/>
</g>
<g id="clust20" class="cluster">
<title>cluster_MovieModule_imports</title>
<polygon fill="none" stroke="black" points="1899,-40.8 1899,-92.8 2057,-92.8 2057,-40.8 1899,-40.8"/>
</g>
<g id="clust24" class="cluster">
<title>cluster_MovieRoutingModule</title>
<polygon fill="none" stroke="black" stroke-dasharray="1,5" points="2073,-100.8 2073,-168.8 2413,-168.8 2413,-100.8 2073,-100.8"/>
</g>
<g id="clust26" class="cluster">
<title>cluster_MovieRoutingModule_imports</title>
<polygon fill="none" stroke="black" points="2207,-108.8 2207,-160.8 2405,-160.8 2405,-108.8 2207,-108.8"/>
</g>
<g id="clust27" class="cluster">
<title>cluster_MovieRoutingModule_exports</title>
<polygon fill="none" stroke="black" points="2081,-108.8 2081,-160.8 2199,-160.8 2199,-108.8 2081,-108.8"/>
</g>
<g id="clust30" class="cluster">
<title>cluster_SearchModule</title>
<polygon fill="none" stroke="black" stroke-dasharray="1,5" points="2421,-32.8 2421,-160.8 2739,-160.8 2739,-32.8 2421,-32.8"/>
</g>
<g id="clust31" class="cluster">
<title>cluster_SearchModule_declarations</title>
<polygon fill="none" stroke="black" points="2595,-40.8 2595,-92.8 2731,-92.8 2731,-40.8 2595,-40.8"/>
</g>
<g id="clust33" class="cluster">
<title>cluster_SearchModule_imports</title>
<polygon fill="none" stroke="black" points="2429,-40.8 2429,-92.8 2587,-92.8 2587,-40.8 2429,-40.8"/>
</g>
<!-- AppComponent -->
<g id="node1" class="node">
<title>AppComponent</title>
<polygon fill="#ffffb3" stroke="black" points="973.94,-84.8 868.06,-84.8 868.06,-48.8 973.94,-48.8 973.94,-84.8"/>
<text text-anchor="middle" x="921" y="-62.6" font-family="Times,serif" font-size="14.00">AppComponent</text>
</g>
<!-- AppModule -->
<g id="node4" class="node">
<title>AppModule</title>
<polygon fill="#8dd3c7" stroke="black" points="664.66,-152.8 661.66,-156.8 640.66,-156.8 637.66,-152.8 581.34,-152.8 581.34,-116.8 664.66,-116.8 664.66,-152.8"/>
<text text-anchor="middle" x="623" y="-130.6" font-family="Times,serif" font-size="14.00">AppModule</text>
</g>
<!-- AppComponent&#45;&gt;AppModule -->
<g id="edge1" class="edge">
<title>AppComponent&#45;&gt;AppModule</title>
<path fill="none" stroke="black" d="M921,-85.02C921,-105.17 921,-134.8 921,-134.8 921,-134.8 674.75,-134.8 674.75,-134.8"/>
<polygon fill="black" stroke="black" points="674.75,-131.3 664.75,-134.8 674.75,-138.3 674.75,-131.3"/>
</g>
<!-- HomeComponent -->
<g id="node2" class="node">
<title>HomeComponent</title>
<polygon fill="#ffffb3" stroke="black" points="1251.55,-84.8 1136.45,-84.8 1136.45,-48.8 1251.55,-48.8 1251.55,-84.8"/>
<text text-anchor="middle" x="1194" y="-62.6" font-family="Times,serif" font-size="14.00">HomeComponent</text>
</g>
<!-- HomeComponent&#45;&gt;AppModule -->
<g id="edge2" class="edge">
<title>HomeComponent&#45;&gt;AppModule</title>
<path fill="none" stroke="black" d="M1194,-84.95C1194,-108.56 1194,-146.8 1194,-146.8 1194,-146.8 674.99,-146.8 674.99,-146.8"/>
<polygon fill="black" stroke="black" points="674.99,-143.3 664.99,-146.8 674.99,-150.3 674.99,-143.3"/>
</g>
<!-- routingComponents -->
<g id="node3" class="node">
<title>routingComponents</title>
<polygon fill="#ffffb3" stroke="black" points="1118.72,-84.8 991.28,-84.8 991.28,-48.8 1118.72,-48.8 1118.72,-84.8"/>
<text text-anchor="middle" x="1055" y="-62.6" font-family="Times,serif" font-size="14.00">routingComponents</text>
</g>
<!-- routingComponents&#45;&gt;AppModule -->
<g id="edge3" class="edge">
<title>routingComponents&#45;&gt;AppModule</title>
<path fill="none" stroke="black" d="M1055,-85.09C1055,-107.01 1055,-140.8 1055,-140.8 1055,-140.8 674.81,-140.8 674.81,-140.8"/>
<polygon fill="black" stroke="black" points="674.81,-137.3 664.81,-140.8 674.81,-144.3 674.81,-137.3"/>
</g>
<!-- AppComponent  -->
<g id="node10" class="node">
<title>AppComponent </title>
<polygon fill="#80b1d3" stroke="black" points="677.44,-220.8 568.56,-220.8 568.56,-184.8 677.44,-184.8 677.44,-220.8"/>
<text text-anchor="middle" x="623" y="-198.6" font-family="Times,serif" font-size="14.00">AppComponent </text>
</g>
<!-- AppModule&#45;&gt;AppComponent  -->
<g id="edge9" class="edge">
<title>AppModule&#45;&gt;AppComponent </title>
<path fill="none" stroke="black" stroke-dasharray="1,5" d="M623,-153.02C623,-153.02 623,-174.53 623,-174.53"/>
<polygon fill="black" stroke="black" points="619.5,-174.53 623,-184.53 626.5,-174.53 619.5,-174.53"/>
</g>
<!-- BrowserModule -->
<g id="node5" class="node">
<title>BrowserModule</title>
<polygon fill="#8dd3c7" stroke="black" points="545.47,-84.8 542.47,-88.8 521.47,-88.8 518.47,-84.8 438.53,-84.8 438.53,-48.8 545.47,-48.8 545.47,-84.8"/>
<text text-anchor="middle" x="492" y="-62.6" font-family="Times,serif" font-size="14.00">BrowserModule</text>
</g>
<!-- BrowserModule&#45;&gt;AppModule -->
<g id="edge4" class="edge">
<title>BrowserModule&#45;&gt;AppModule</title>
<path fill="none" stroke="black" d="M492,-84.83C492,-101.86 492,-124.8 492,-124.8 492,-124.8 571.19,-124.8 571.19,-124.8"/>
<polygon fill="black" stroke="black" points="571.19,-128.3 581.19,-124.8 571.19,-121.3 571.19,-128.3"/>
</g>
<!-- AppRoutingModule -->
<g id="node6" class="node">
<title>AppRoutingModule</title>
<polygon fill="#8dd3c7" stroke="black" points="420.27,-84.8 417.27,-88.8 396.27,-88.8 393.27,-84.8 291.73,-84.8 291.73,-48.8 420.27,-48.8 420.27,-84.8"/>
<text text-anchor="middle" x="356" y="-62.6" font-family="Times,serif" font-size="14.00">AppRoutingModule</text>
</g>
<!-- AppRoutingModule&#45;&gt;AppModule -->
<g id="edge5" class="edge">
<title>AppRoutingModule&#45;&gt;AppModule</title>
<path fill="none" stroke="black" d="M356,-84.91C356,-104.14 356,-131.8 356,-131.8 356,-131.8 571.28,-131.8 571.28,-131.8"/>
<polygon fill="black" stroke="black" points="571.28,-135.3 581.28,-131.8 571.28,-128.3 571.28,-135.3"/>
</g>
<!-- FormsModule -->
<g id="node7" class="node">
<title>FormsModule</title>
<polygon fill="#8dd3c7" stroke="black" points="273.83,-84.8 270.83,-88.8 249.83,-88.8 246.83,-84.8 178.17,-84.8 178.17,-48.8 273.83,-48.8 273.83,-84.8"/>
<text text-anchor="middle" x="226" y="-62.6" font-family="Times,serif" font-size="14.00">FormsModule</text>
</g>
<!-- FormsModule&#45;&gt;AppModule -->
<g id="edge6" class="edge">
<title>FormsModule&#45;&gt;AppModule</title>
<path fill="none" stroke="black" d="M226,-84.97C226,-106.3 226,-138.8 226,-138.8 226,-138.8 571.26,-138.8 571.26,-138.8"/>
<polygon fill="black" stroke="black" points="571.26,-142.3 581.26,-138.8 571.26,-135.3 571.26,-142.3"/>
</g>
<!-- ReactiveFormsModule -->
<g id="node8" class="node">
<title>ReactiveFormsModule</title>
<polygon fill="#8dd3c7" stroke="black" points="844.3,-84.8 841.3,-88.8 820.3,-88.8 817.3,-84.8 699.7,-84.8 699.7,-48.8 844.3,-48.8 844.3,-84.8"/>
<text text-anchor="middle" x="772" y="-62.6" font-family="Times,serif" font-size="14.00">ReactiveFormsModule</text>
</g>
<!-- ReactiveFormsModule&#45;&gt;AppModule -->
<g id="edge7" class="edge">
<title>ReactiveFormsModule&#45;&gt;AppModule</title>
<path fill="none" stroke="black" d="M772,-85.07C772,-103.36 772,-128.8 772,-128.8 772,-128.8 674.9,-128.8 674.9,-128.8"/>
<polygon fill="black" stroke="black" points="674.9,-125.3 664.9,-128.8 674.9,-132.3 674.9,-125.3"/>
</g>
<!-- HttpClientModule -->
<g id="node9" class="node">
<title>HttpClientModule</title>
<polygon fill="#8dd3c7" stroke="black" points="682.16,-84.8 679.16,-88.8 658.16,-88.8 655.16,-84.8 563.84,-84.8 563.84,-48.8 682.16,-48.8 682.16,-84.8"/>
<text text-anchor="middle" x="623" y="-62.6" font-family="Times,serif" font-size="14.00">HttpClientModule</text>
</g>
<!-- HttpClientModule&#45;&gt;AppModule -->
<g id="edge8" class="edge">
<title>HttpClientModule&#45;&gt;AppModule</title>
<path fill="none" stroke="black" d="M623,-85.02C623,-85.02 623,-106.53 623,-106.53"/>
<polygon fill="black" stroke="black" points="619.5,-106.53 623,-116.53 626.5,-106.53 619.5,-106.53"/>
</g>
<!-- MovieService -->
<g id="node11" class="node">
<title>MovieService</title>
<ellipse fill="#fdb462" stroke="black" cx="89" cy="-66.8" rx="65.41" ry="18"/>
<text text-anchor="middle" x="89" y="-62.6" font-family="Times,serif" font-size="14.00">MovieService</text>
</g>
<!-- MovieService&#45;&gt;AppModule -->
<g id="edge10" class="edge">
<title>MovieService&#45;&gt;AppModule</title>
<path fill="none" stroke="black" d="M89,-85.12C89,-108.46 89,-145.8 89,-145.8 89,-145.8 571.1,-145.8 571.1,-145.8"/>
<polygon fill="black" stroke="black" points="571.1,-149.3 581.1,-145.8 571.1,-142.3 571.1,-149.3"/>
</g>
<!-- FavoriteComponent -->
<g id="node12" class="node">
<title>FavoriteComponent</title>
<polygon fill="#ffffb3" stroke="black" points="1419.99,-84.8 1292.01,-84.8 1292.01,-48.8 1419.99,-48.8 1419.99,-84.8"/>
<text text-anchor="middle" x="1356" y="-62.6" font-family="Times,serif" font-size="14.00">FavoriteComponent</text>
</g>
<!-- FavoriteModule -->
<g id="node13" class="node">
<title>FavoriteModule</title>
<polygon fill="#8dd3c7" stroke="black" points="1573.2,-152.8 1570.2,-156.8 1549.2,-156.8 1546.2,-152.8 1466.8,-152.8 1466.8,-116.8 1573.2,-116.8 1573.2,-152.8"/>
<text text-anchor="middle" x="1520" y="-130.6" font-family="Times,serif" font-size="14.00">FavoriteModule</text>
</g>
<!-- FavoriteComponent&#45;&gt;FavoriteModule -->
<g id="edge11" class="edge">
<title>FavoriteComponent&#45;&gt;FavoriteModule</title>
<path fill="none" stroke="black" d="M1356,-84.83C1356,-101.2 1356,-122.8 1356,-122.8 1356,-122.8 1456.75,-122.8 1456.75,-122.8"/>
<polygon fill="black" stroke="black" points="1456.75,-126.3 1466.75,-122.8 1456.75,-119.3 1456.75,-126.3"/>
</g>
<!-- CommonModule -->
<g id="node14" class="node">
<title>CommonModule</title>
<polygon fill="#8dd3c7" stroke="black" points="1724.67,-84.8 1721.67,-88.8 1700.67,-88.8 1697.67,-84.8 1613.33,-84.8 1613.33,-48.8 1724.67,-48.8 1724.67,-84.8"/>
<text text-anchor="middle" x="1669" y="-62.6" font-family="Times,serif" font-size="14.00">CommonModule</text>
</g>
<!-- CommonModule&#45;&gt;FavoriteModule -->
<g id="edge12" class="edge">
<title>CommonModule&#45;&gt;FavoriteModule</title>
<path fill="none" stroke="black" d="M1669,-85.09C1669,-107.01 1669,-140.8 1669,-140.8 1669,-140.8 1583.37,-140.8 1583.37,-140.8"/>
<polygon fill="black" stroke="black" points="1583.37,-137.3 1573.37,-140.8 1583.37,-144.3 1583.37,-137.3"/>
</g>
<!-- MovieModule -->
<g id="node17" class="node">
<title>MovieModule</title>
<polygon fill="#8dd3c7" stroke="black" points="1872.1,-152.8 1869.1,-156.8 1848.1,-156.8 1845.1,-152.8 1775.9,-152.8 1775.9,-116.8 1872.1,-116.8 1872.1,-152.8"/>
<text text-anchor="middle" x="1824" y="-130.6" font-family="Times,serif" font-size="14.00">MovieModule</text>
</g>
<!-- CommonModule&#45;&gt;MovieModule -->
<g id="edge15" class="edge">
<title>CommonModule&#45;&gt;MovieModule</title>
<path fill="none" stroke="black" d="M1696.92,-85.07C1696.92,-103.36 1696.92,-128.8 1696.92,-128.8 1696.92,-128.8 1765.59,-128.8 1765.59,-128.8"/>
<polygon fill="black" stroke="black" points="1765.59,-132.3 1775.59,-128.8 1765.59,-125.3 1765.59,-132.3"/>
</g>
<!-- SearchModule -->
<g id="node22" class="node">
<title>SearchModule</title>
<polygon fill="#8dd3c7" stroke="black" points="2556.64,-152.8 2553.64,-156.8 2532.64,-156.8 2529.64,-152.8 2459.36,-152.8 2459.36,-116.8 2556.64,-116.8 2556.64,-152.8"/>
<text text-anchor="middle" x="2508" y="-130.6" font-family="Times,serif" font-size="14.00">SearchModule</text>
</g>
<!-- CommonModule&#45;&gt;SearchModule -->
<g id="edge20" class="edge">
<title>CommonModule&#45;&gt;SearchModule</title>
<path fill="none" stroke="black" d="M1641.08,-84.99C1641.08,-93.08 1641.08,-100.8 1641.08,-100.8 1641.08,-100.8 2491.73,-100.8 2491.73,-100.8 2491.73,-100.8 2491.73,-106.61 2491.73,-106.61"/>
<polygon fill="black" stroke="black" points="2488.23,-106.61 2491.73,-116.61 2495.23,-106.61 2488.23,-106.61"/>
</g>
<!-- FavoriteRoutingModule -->
<g id="node15" class="node">
<title>FavoriteRoutingModule</title>
<polygon fill="#8dd3c7" stroke="black" points="1595.82,-84.8 1592.82,-88.8 1571.82,-88.8 1568.82,-84.8 1444.18,-84.8 1444.18,-48.8 1595.82,-48.8 1595.82,-84.8"/>
<text text-anchor="middle" x="1520" y="-62.6" font-family="Times,serif" font-size="14.00">FavoriteRoutingModule</text>
</g>
<!-- FavoriteRoutingModule&#45;&gt;FavoriteModule -->
<g id="edge13" class="edge">
<title>FavoriteRoutingModule&#45;&gt;FavoriteModule</title>
<path fill="none" stroke="black" d="M1520,-85.02C1520,-85.02 1520,-106.53 1520,-106.53"/>
<polygon fill="black" stroke="black" points="1516.5,-106.53 1520,-116.53 1523.5,-106.53 1516.5,-106.53"/>
</g>
<!-- MovieComponent -->
<g id="node16" class="node">
<title>MovieComponent</title>
<polygon fill="#ffffb3" stroke="black" points="1882.88,-84.8 1765.12,-84.8 1765.12,-48.8 1882.88,-48.8 1882.88,-84.8"/>
<text text-anchor="middle" x="1824" y="-62.6" font-family="Times,serif" font-size="14.00">MovieComponent</text>
</g>
<!-- MovieComponent&#45;&gt;MovieModule -->
<g id="edge14" class="edge">
<title>MovieComponent&#45;&gt;MovieModule</title>
<path fill="none" stroke="black" d="M1824,-85.02C1824,-85.02 1824,-106.53 1824,-106.53"/>
<polygon fill="black" stroke="black" points="1820.5,-106.53 1824,-116.53 1827.5,-106.53 1820.5,-106.53"/>
</g>
<!-- MovieRoutingModule -->
<g id="node18" class="node">
<title>MovieRoutingModule</title>
<polygon fill="#8dd3c7" stroke="black" points="2048.72,-84.8 2045.72,-88.8 2024.72,-88.8 2021.72,-84.8 1907.28,-84.8 1907.28,-48.8 2048.72,-48.8 2048.72,-84.8"/>
<text text-anchor="middle" x="1978" y="-62.6" font-family="Times,serif" font-size="14.00">MovieRoutingModule</text>
</g>
<!-- MovieRoutingModule&#45;&gt;MovieModule -->
<g id="edge16" class="edge">
<title>MovieRoutingModule&#45;&gt;MovieModule</title>
<path fill="none" stroke="black" d="M1978,-85.02C1978,-105.17 1978,-134.8 1978,-134.8 1978,-134.8 1882.3,-134.8 1882.3,-134.8"/>
<polygon fill="black" stroke="black" points="1882.3,-131.3 1872.3,-134.8 1882.3,-138.3 1882.3,-131.3"/>
</g>
<!-- RouterModule  -->
<g id="node20" class="node">
<title>RouterModule </title>
<polygon fill="#fb8072" stroke="black" points="2190.65,-152.8 2089.35,-152.8 2089.35,-116.8 2190.65,-116.8 2190.65,-152.8"/>
<text text-anchor="middle" x="2140" y="-130.6" font-family="Times,serif" font-size="14.00">RouterModule </text>
</g>
<!-- MovieRoutingModule&#45;&gt;RouterModule  -->
<g id="edge18" class="edge">
<title>MovieRoutingModule&#45;&gt;RouterModule </title>
<path fill="none" stroke="black" stroke-dasharray="5,2" d="M2048.87,-75.8C2085.71,-75.8 2123.14,-75.8 2123.14,-75.8 2123.14,-75.8 2123.14,-106.78 2123.14,-106.78"/>
<polygon fill="black" stroke="black" points="2119.64,-106.78 2123.14,-116.78 2126.64,-106.78 2119.64,-106.78"/>
</g>
<!-- RouterModule.forChild(args) -->
<g id="node19" class="node">
<title>RouterModule.forChild(args)</title>
<polygon fill="#8dd3c7" stroke="black" points="2396.73,-152.8 2393.73,-156.8 2372.73,-156.8 2369.73,-152.8 2215.27,-152.8 2215.27,-116.8 2396.73,-116.8 2396.73,-152.8"/>
<text text-anchor="middle" x="2306" y="-130.6" font-family="Times,serif" font-size="14.00">RouterModule.forChild(args)</text>
</g>
<!-- RouterModule.forChild(args)&#45;&gt;MovieRoutingModule -->
<g id="edge17" class="edge">
<title>RouterModule.forChild(args)&#45;&gt;MovieRoutingModule</title>
<path fill="none" stroke="black" d="M2306,-116.58C2306,-96.43 2306,-66.8 2306,-66.8 2306,-66.8 2058.77,-66.8 2058.77,-66.8"/>
<polygon fill="black" stroke="black" points="2058.77,-63.3 2048.77,-66.8 2058.77,-70.3 2058.77,-63.3"/>
</g>
<!-- SearchRoutingModule -->
<g id="node23" class="node">
<title>SearchRoutingModule</title>
<polygon fill="#8dd3c7" stroke="black" points="2579.25,-84.8 2576.25,-88.8 2555.25,-88.8 2552.25,-84.8 2436.75,-84.8 2436.75,-48.8 2579.25,-48.8 2579.25,-84.8"/>
<text text-anchor="middle" x="2508" y="-62.6" font-family="Times,serif" font-size="14.00">SearchRoutingModule</text>
</g>
<!-- RouterModule.forChild(args)&#45;&gt;SearchRoutingModule -->
<g id="edge22" class="edge">
<title>RouterModule.forChild(args)&#45;&gt;SearchRoutingModule</title>
<path fill="none" stroke="black" d="M2396.67,-134.8C2424.48,-134.8 2447.9,-134.8 2447.9,-134.8 2447.9,-134.8 2447.9,-95.02 2447.9,-95.02"/>
<polygon fill="black" stroke="black" points="2451.4,-95.02 2447.9,-85.02 2444.4,-95.02 2451.4,-95.02"/>
</g>
<!-- SearchComponent -->
<g id="node21" class="node">
<title>SearchComponent</title>
<polygon fill="#ffffb3" stroke="black" points="2722.92,-84.8 2603.08,-84.8 2603.08,-48.8 2722.92,-48.8 2722.92,-84.8"/>
<text text-anchor="middle" x="2663" y="-62.6" font-family="Times,serif" font-size="14.00">SearchComponent</text>
</g>
<!-- SearchComponent&#45;&gt;SearchModule -->
<g id="edge19" class="edge">
<title>SearchComponent&#45;&gt;SearchModule</title>
<path fill="none" stroke="black" d="M2663,-85.02C2663,-105.17 2663,-134.8 2663,-134.8 2663,-134.8 2567.04,-134.8 2567.04,-134.8"/>
<polygon fill="black" stroke="black" points="2567.04,-131.3 2557.04,-134.8 2567.04,-138.3 2567.04,-131.3"/>
</g>
<!-- SearchRoutingModule&#45;&gt;RouterModule  -->
<g id="edge23" class="edge">
<title>SearchRoutingModule&#45;&gt;RouterModule </title>
<path fill="none" stroke="black" stroke-dasharray="5,2" d="M2436.52,-57.8C2333.85,-57.8 2156.86,-57.8 2156.86,-57.8 2156.86,-57.8 2156.86,-106.55 2156.86,-106.55"/>
<polygon fill="black" stroke="black" points="2153.36,-106.55 2156.86,-116.55 2160.36,-106.55 2153.36,-106.55"/>
</g>
<!-- SearchRoutingModule&#45;&gt;SearchModule -->
<g id="edge21" class="edge">
<title>SearchRoutingModule&#45;&gt;SearchModule</title>
<path fill="none" stroke="black" d="M2524.27,-85.02C2524.27,-85.02 2524.27,-106.53 2524.27,-106.53"/>
<polygon fill="black" stroke="black" points="2520.77,-106.53 2524.27,-116.53 2527.77,-106.53 2520.77,-106.53"/>
</g>
</g>
</svg>
